<?xml version="1.0" encoding="UTF-8" standalone="no"?>
<svg width="195px" height="161px" viewBox="0 0 195 161" version="1.1" xmlns="http://www.w3.org/2000/svg" xmlns:xlink="http://www.w3.org/1999/xlink" xmlns:sketch="http://www.bohemiancoding.com/sketch/ns">
    <!-- Generator: Sketch 3.5.2 (25235) - http://www.bohemiancoding.com/sketch -->
    <title>Group 2</title>
    <desc>Created with Sketch.</desc>
    <defs></defs>
    <g id="Page-1" stroke="none" stroke-width="1" fill="none" fill-rule="evenodd" sketch:type="MSPage">
        <g id="BACK" sketch:type="MSArtboardGroup" transform="translate(-79.000000, -2124.000000)">
            <g id="Group-2" sketch:type="MSLayerGroup" transform="translate(74.000000, 2124.000000)">
                <g id="Us" transform="translate(101.500000, 113.500000) scale(-1, 1) translate(-101.500000, -113.500000) translate(0.000000, 52.000000)" sketch:type="MSShapeGroup">
                    <g id="Group-7" transform="translate(48.958003, 50.297749) rotate(-30.000000) translate(-48.958003, -50.297749) translate(9.458003, 20.797749)">
                        <path d="M73.672327,24.5256529 L78.5905399,35.4166486 L69.4966678,35.1365922 L73.672327,24.5256529 Z" id="Path-9" fill="#000000"></path>
                        <path d="M19.6274031,52.3406186 L13.2351631,58.7048141 L12.1218625,57.8973491 L18.3541437,49.6775362 L19.6274031,52.3406186 Z" id="Path-18" fill="#000000"></path>
                        <path d="M14.5385415,48.4308094 L8.14630162,54.795005 L7.03300098,53.98754 L13.2652822,45.767727 L14.5385415,48.4308094 Z" id="Path-18" fill="#000000"></path>
                        <path d="M0.645550669,5.80566406 C0.645550669,5.80566406 6.74705378,10.8414352 14.472323,10.8414352 C22.1975922,10.8414352 26.4131288,8.1572989 31.227087,6.01596861 C36.0410453,3.87463831 43.41237,-3.63797881e-12 53.2430618,-3.63797881e-12 C63.0737535,-3.63797881e-12 67.7136065,4.77826606 69.4301593,6.6809715 C71.146712,8.58367694 76.2213068,14.5765697 75.3976951,22.8681279 C74.5740834,31.1596861 66.3911363,55.5093859 38.3377751,56.962113 C10.2844139,58.4148401 3.15026852,30.4763274 1.05110124,23.4916992 C-1.04806604,16.507071 0.645550669,5.80566406 0.645550669,5.80566406 Z" id="Path-3" fill="#FF9898"></path>
                        <path d="M70.4071472,37.456383 C65.2612526,46.5802754 55.5316069,56.0717403 38.3377751,56.962113 C36.9900149,57.031906 35.6905383,57.0338609 34.4375842,56.9735604 C34.5567166,51.1461565 35.9782049,41.7405473 47.0615894,35.8957339 C58.0844452,30.0828402 65.8097385,33.3612626 70.4071472,37.456383 Z" id="Path-3" fill="#FF7B7B"></path>
                        <path d="M62.7804532,17.8133454 C63.9273847,17.8133454 66.3283691,19.6396123 66.3283691,21.1290509 C66.3283691,22.6184896 65.5252174,24.8824101 62.6166431,24.8824101 C59.7080688,24.8824101 59.3615525,23.0006827 59.3615525,21.5345821 C59.3615525,20.0684814 61.6335218,17.8133454 62.7804532,17.8133454 Z" id="Path-5" fill="#000000"></path>
                        <path d="M62.3193871,19.0066008 C62.8268466,19.0066008 63.1631981,19.0606192 63.1631981,19.7505335 C63.1631981,20.4404478 62.7791501,20.7454156 62.2933234,20.7454156 C61.8074968,20.7454156 61.5262699,20.2873083 61.5262699,19.8934462 C61.5262699,19.4995841 61.8119276,19.0066008 62.3193871,19.0066008 Z" id="Path-6" fill="#FFFFFF"></path>
                        <path d="M18.1474758,18.8428413 C18.1474758,18.8428413 17.7995259,21.5153085 17.7995259,22.6313386 C17.7995259,23.7473687 19.5842351,45.487273 38.4884693,45.487273 C57.3927035,45.487273 52.8065416,16.0743996 28.7218941,17.5520381 C24.4946289,17.7636538 18.1474758,18.8428413 18.1474758,18.8428413 Z" id="Path-6" fill="#DA5555"></path>
                    </g>
                    <g id="Group-7" transform="translate(140.663464, 61.174932) scale(-1, 1) rotate(-42.000000) translate(-140.663464, -61.174932) translate(93.663464, 21.174932)">
                        <path d="M18.1038164,55.8978726 L17.8753008,75.0970913 L20.1243242,75.6078335 L22.754207,53.9095913 L18.1038164,55.8978726 Z" id="Path-18" fill="#000000" transform="translate(20.314754, 64.758712) rotate(34.000000) translate(-20.314754, -64.758712) "></path>
                        <path d="M26.130381,60.4337584 L25.9018654,79.6329772 L28.1508889,80.1437193 L30.7807717,58.4454772 L26.130381,60.4337584 Z" id="Path-18" fill="#000000" transform="translate(28.341319, 69.294598) rotate(34.000000) translate(-28.341319, -69.294598) "></path>
                        <path d="M87.6645493,29.1836893 L93.5168542,42.1431583 L82.6958277,41.8099121 L87.6645493,29.1836893 Z" id="Path-9" fill="#000000"></path>
                        <path d="M0.768156929,6.90830525 C0.768156929,6.90830525 8.02848849,12.9004956 17.22098,12.9004956 C26.4134716,12.9004956 31.4296443,9.70657452 37.1578939,7.1585519 C42.8861436,4.61052929 51.6574677,-1.59161573e-12 63.3552543,-1.59161573e-12 C75.053041,-1.59161573e-12 80.5741184,5.6857786 82.6166875,7.94985552 C84.6592567,10.2139324 90.6976444,17.3450259 89.7176081,27.2113588 C88.7375719,37.0776918 79.000478,66.0520102 45.61908,67.7806466 C12.237682,69.5092831 3.74858351,36.2645462 1.25073172,27.953362 C-1.24712007,19.6421778 0.768156929,6.90830525 0.768156929,6.90830525 Z" id="Path-3" fill="#87CDCD"></path>
                        <path d="M83.77923,44.5702894 C77.656001,55.4270377 66.0784516,66.7211699 45.61908,67.7806466 C44.0153462,67.8636951 42.4690665,67.8660213 40.978145,67.7942682 C41.1199036,60.8600941 42.8113682,49.668124 55.9997654,42.7132339 C69.1161379,35.7963259 78.3086581,39.6974029 83.77923,44.5702894 Z" id="Path-3" fill="#5EB2B4"></path>
                        <path d="M74.7040356,21.1965464 C76.0687981,21.1965464 78.9257897,23.3696671 78.9257897,25.1419875 C78.9257897,26.9143079 77.9700993,29.6082038 74.5091138,29.6082038 C71.0481284,29.6082038 70.6357998,27.3690891 70.6357998,25.6245392 C70.6357998,23.8799893 73.3392732,21.1965464 74.7040356,21.1965464 Z" id="Path-5" fill="#000000"></path>
                        <path d="M74.1554014,22.616431 C74.7592402,22.616431 75.1594733,22.6807088 75.1594733,23.5016551 C75.1594733,24.3226014 74.7024849,24.6854902 74.1243876,24.6854902 C73.5462903,24.6854902 73.2116513,24.1403769 73.2116513,23.6717105 C73.2116513,23.203044 73.5515626,22.616431 74.1554014,22.616431 Z" id="Path-6" fill="#FFFFFF"></path>
                        <path d="M21.5941365,22.4215693 C21.5941365,22.4215693 21.1801022,25.6016051 21.1801022,26.9295973 C21.1801022,28.2575895 23.3037725,54.1264468 45.7983948,54.1264468 C68.2930171,54.1264468 62.8358281,19.1273312 34.1769021,20.8856103 C29.1467732,21.1374171 21.5941365,22.4215693 21.5941365,22.4215693 Z" id="Path-6" fill="#525866"></path>
                    </g>
                </g>
                <path d="M67.1012541,43.8983593 L76.9307733,61.591248 L70.8178275,43.3415751 C97.8214405,38.6552714 90.97068,24.5854097 87.4352532,15.3603671 C83.4946914,5.07819975 79.5325374,0.862338397 55.4368115,0.946547664 C31.3410856,1.03075693 29.6482634,14.8669872 27.3767725,24.5132666 C25.1052815,34.1595461 20.8548727,47.1795942 60.1449732,44.5615497 C62.6520683,44.3944927 64.9663713,44.171723 67.1012541,43.8983593 Z" id="Path-68" stroke="#585444" fill="#FFFFFF" sketch:type="MSShapeGroup"></path>
                <text id="i-do." sketch:type="MSTextLayer" font-family="HanziPen TC" font-size="20" font-weight="normal" fill="#585345">
                    <tspan x="41.1208254" y="30.2828091">i do.</tspan>
                </text>
                <path d="M154.065277,48.2041125 L146.188815,62.3815481 L151.087161,47.7579575 C129.448977,44.0027895 134.938539,32.7285108 137.771502,25.3364197 C140.929102,17.097247 144.104003,13.7190478 163.412077,13.7865253 C182.720151,13.8540028 184.076621,24.9410709 185.896783,32.6707021 C187.716944,40.4003333 191.122826,50.833389 159.639394,48.7355316 C157.630441,48.6016677 155.775974,48.4231608 154.065277,48.2041125 Z" id="Path-68" stroke="#585444" fill="#FFFFFF" sketch:type="MSShapeGroup"></path>
                <text id="i-do." sketch:type="MSTextLayer" font-family="HanziPen TC" font-size="18" font-weight="normal" fill="#585345">
                    <tspan x="148" y="37">i do.</tspan>
                </text>
            </g>
        </g>
    </g>
</svg>